<svg width="20" height="20" viewBox="0 0 20 20" fill="none" xmlns="http://www.w3.org/2000/svg">
<g clip-path="url(#clip0_343_592)">
<g clip-path="url(#clip1_343_592)">
<g clip-path="url(#clip2_343_592)">
<mask id="mask0_343_592" style="mask-type:alpha" maskUnits="userSpaceOnUse" x="0" y="0" width="20" height="20">
<path d="M20 0H0V20H20V0Z" fill="#D9D9D9"/>
</mask>
<g mask="url(#mask0_343_592)">
<path d="M19.1673 7.49987C19.1673 8.45821 18.9972 9.3714 18.6569 10.2395C18.3166 11.1075 17.8548 11.8957 17.2715 12.6041C17.1048 12.7985 16.8965 12.9027 16.6465 12.9166C16.3965 12.9304 16.1743 12.8402 15.9798 12.6457C15.7993 12.4652 15.7159 12.2499 15.7298 11.9999C15.7437 11.7499 15.827 11.5207 15.9798 11.3124C16.3965 10.7846 16.7194 10.1943 16.9486 9.54154C17.1777 8.88876 17.2923 8.20821 17.2923 7.49987C17.2923 6.79154 17.1777 6.11793 16.9486 5.47904C16.7194 4.84015 16.3965 4.25682 15.9798 3.72904C15.8132 3.52071 15.7263 3.29154 15.7194 3.04154C15.7125 2.79154 15.7993 2.56932 15.9798 2.37487C16.1604 2.18043 16.3791 2.08668 16.6361 2.09362C16.893 2.10057 17.1048 2.20126 17.2715 2.39571C17.8548 3.10404 18.3166 3.89223 18.6569 4.76029C18.9972 5.62835 19.1673 6.54154 19.1673 7.49987ZM15.3757 7.49987C15.3757 7.94432 15.3062 8.3714 15.1673 8.78112C15.0284 9.19085 14.834 9.56932 14.584 9.91654C14.4312 10.1249 14.2263 10.2325 13.9694 10.2395C13.7125 10.2464 13.4868 10.1527 13.2923 9.95821C13.1118 9.77765 13.018 9.5589 13.0111 9.30196C13.0041 9.04501 13.0632 8.79848 13.1882 8.56237C13.2715 8.4096 13.3375 8.24293 13.3861 8.06237C13.4347 7.88182 13.459 7.69432 13.459 7.49987C13.459 7.30543 13.4347 7.11793 13.3861 6.93737C13.3375 6.75682 13.2715 6.58321 13.1882 6.41654C13.0632 6.18043 13.0041 5.93737 13.0111 5.68737C13.018 5.43737 13.1118 5.2221 13.2923 5.04154C13.4868 4.8471 13.7125 4.75335 13.9694 4.76029C14.2263 4.76723 14.4312 4.87487 14.584 5.08321C14.834 5.43043 15.0284 5.8089 15.1673 6.21862C15.3062 6.62835 15.3757 7.05543 15.3757 7.49987ZM7.50065 10.8332C6.58398 10.8332 5.79926 10.5068 5.14648 9.85404C4.49371 9.20126 4.16732 8.41654 4.16732 7.49987C4.16732 6.58321 4.49371 5.79848 5.14648 5.14571C5.79926 4.49293 6.58398 4.16654 7.50065 4.16654C8.41732 4.16654 9.20204 4.49293 9.85482 5.14571C10.5076 5.79848 10.834 6.58321 10.834 7.49987C10.834 8.41654 10.5076 9.20126 9.85482 9.85404C9.20204 10.5068 8.41732 10.8332 7.50065 10.8332ZM0.833984 15.8332V15.1666C0.833984 14.7082 0.95204 14.2777 1.18815 13.8749C1.42426 13.4721 1.75065 13.1666 2.16732 12.9582C2.87565 12.5971 3.67426 12.2916 4.56315 12.0416C5.45204 11.7916 6.43121 11.6666 7.50065 11.6666C8.5701 11.6666 9.54926 11.7916 10.4382 12.0416C11.327 12.2916 12.1257 12.5971 12.834 12.9582C13.2507 13.1666 13.577 13.4721 13.8132 13.8749C14.0493 14.2777 14.1673 14.7082 14.1673 15.1666V15.8332C14.1673 16.2916 14.0041 16.6839 13.6777 17.0103C13.3513 17.3367 12.959 17.4999 12.5007 17.4999H2.50065C2.04232 17.4999 1.64996 17.3367 1.32357 17.0103C0.997179 16.6839 0.833984 16.2916 0.833984 15.8332ZM2.50065 15.8332H12.5007V15.1666C12.5007 15.0138 12.4625 14.8749 12.3861 14.7499C12.3097 14.6249 12.209 14.5277 12.084 14.4582C11.584 14.2082 10.9416 13.9582 10.1569 13.7082C9.37218 13.4582 8.48676 13.3332 7.50065 13.3332C6.51454 13.3332 5.62912 13.4582 4.8444 13.7082C4.05968 13.9582 3.41732 14.2082 2.91732 14.4582C2.79232 14.5277 2.69162 14.6249 2.61523 14.7499C2.53885 14.8749 2.50065 15.0138 2.50065 15.1666V15.8332ZM7.50065 9.16654C7.95898 9.16654 8.35135 9.00335 8.67773 8.67696C9.00412 8.35057 9.16732 7.95821 9.16732 7.49987C9.16732 7.04154 9.00412 6.64918 8.67773 6.32279C8.35135 5.9964 7.95898 5.83321 7.50065 5.83321C7.04232 5.83321 6.64996 5.9964 6.32357 6.32279C5.99718 6.64918 5.83398 7.04154 5.83398 7.49987C5.83398 7.95821 5.99718 8.35057 6.32357 8.67696C6.64996 9.00335 7.04232 9.16654 7.50065 9.16654Z" fill="#413936"/>
</g>
</g>
</g>
</g>
<defs>
<clipPath id="clip0_343_592">
<rect width="20" height="20" fill="white"/>
</clipPath>
<clipPath id="clip1_343_592">
<rect width="20" height="20" fill="white"/>
</clipPath>
<clipPath id="clip2_343_592">
<rect width="20" height="20" fill="white"/>
</clipPath>
</defs>
</svg>
