<svg width="19" height="15" viewBox="0 0 19 15" fill="none" xmlns="http://www.w3.org/2000/svg">
<path d="M4.16667 14.1667C3.93056 14.1667 3.73264 14.0868 3.57292 13.9271C3.4132 13.7674 3.33334 13.5694 3.33334 13.3333C3.33334 13.0972 3.4132 12.8993 3.57292 12.7396C3.73264 12.5799 3.93056 12.5 4.16667 12.5H4.66667L6.3125 7.02083C6.42362 6.65972 6.62848 6.37153 6.92709 6.15625C7.2257 5.94097 7.55556 5.83333 7.91667 5.83333H10.4167C10.7778 5.83333 11.1076 5.94097 11.4062 6.15625C11.7048 6.37153 11.9097 6.65972 12.0208 7.02083L13.6667 12.5H14.1667C14.4028 12.5 14.6007 12.5799 14.7604 12.7396C14.9201 12.8993 15 13.0972 15 13.3333C15 13.5694 14.9201 13.7674 14.7604 13.9271C14.6007 14.0868 14.4028 14.1667 14.1667 14.1667H4.16667ZM6.41667 12.5H11.9167L10.4167 7.5H7.91667L6.41667 12.5ZM8.33334 3.33333V0.83333C8.33334 0.59722 8.4132 0.39931 8.57292 0.23958C8.73264 0.0798599 8.93056 0 9.16672 0C9.40282 0 9.60072 0.0798599 9.76042 0.23958C9.92012 0.39931 10 0.59722 10 0.83333V3.33333C10 3.56944 9.92012 3.76736 9.76042 3.92708C9.60072 4.08681 9.40282 4.16667 9.16672 4.16667C8.93056 4.16667 8.73264 4.08681 8.57292 3.92708C8.4132 3.76736 8.33334 3.56944 8.33334 3.33333ZM12.7083 4.45833L14.4792 2.6875C14.6319 2.53472 14.8229 2.45486 15.0521 2.44792C15.2812 2.44097 15.4792 2.52083 15.6458 2.6875C15.7986 2.84028 15.875 3.03472 15.875 3.27083C15.875 3.50694 15.7986 3.70139 15.6458 3.85417L13.875 5.64583C13.7083 5.8125 13.5139 5.89583 13.2917 5.89583C13.0694 5.89583 12.875 5.8125 12.7083 5.64583C12.5417 5.47917 12.4583 5.28125 12.4583 5.05208C12.4583 4.82292 12.5417 4.625 12.7083 4.45833ZM15 8.3333H17.5C17.7361 8.3333 17.934 8.4132 18.0937 8.5729C18.2535 8.7326 18.3333 8.9306 18.3333 9.1667C18.3333 9.4028 18.2535 9.6007 18.0937 9.7604C17.934 9.9201 17.7361 10 17.5 10H15C14.7639 10 14.566 9.9201 14.4062 9.7604C14.2465 9.6007 14.1667 9.4028 14.1667 9.1667C14.1667 8.9306 14.2465 8.7326 14.4062 8.5729C14.566 8.4132 14.7639 8.3333 15 8.3333ZM4.45834 5.625L2.6875 3.85417C2.53473 3.70139 2.45487 3.51042 2.44792 3.28125C2.44098 3.05208 2.52084 2.85417 2.6875 2.6875C2.84028 2.53472 3.03473 2.45833 3.27084 2.45833C3.50695 2.45833 3.70139 2.53472 3.85417 2.6875L5.64584 4.45833C5.8125 4.625 5.89584 4.81944 5.89584 5.04167C5.89584 5.26389 5.8125 5.45833 5.64584 5.625C5.47917 5.79167 5.28125 5.875 5.05209 5.875C4.82292 5.875 4.625 5.79167 4.45834 5.625ZM0.833336 10C0.597226 10 0.399306 9.9201 0.239586 9.7604C0.079861 9.6007 0 9.4028 0 9.1667C0 8.9306 0.079861 8.7326 0.239586 8.5729C0.399306 8.4132 0.597226 8.3333 0.833336 8.3333H3.33334C3.56945 8.3333 3.76737 8.4132 3.92709 8.5729C4.08681 8.7326 4.16667 8.9306 4.16667 9.1667C4.16667 9.4028 4.08681 9.6007 3.92709 9.7604C3.76737 9.9201 3.56945 10 3.33334 10H0.833336Z" fill="#413936"/>
</svg>
